<svg width="18" height="18" viewBox="0 0 18 18" fill="none" xmlns="http://www.w3.org/2000/svg">
<path d="M8.99986 0.87225C7.02109 0.872332 5.10691 1.57651 3.59983 2.85879C2.09275 4.14107 1.09111 5.91777 0.774138 7.87099C0.457164 9.8242 0.845541 11.8265 1.86978 13.5195C2.89401 15.2126 4.48727 16.486 6.36446 17.1118C6.78113 17.1848 6.93738 16.9348 6.93738 16.716C6.93738 16.5181 6.92695 15.8618 6.92695 15.1639C4.83319 15.5493 4.29153 14.6535 4.12486 14.1848C3.93992 13.7289 3.64676 13.3249 3.27069 13.0077C2.97903 12.8514 2.56236 12.466 3.26027 12.4556C3.52676 12.4845 3.78235 12.5772 4.00539 12.7259C4.22842 12.8746 4.41233 13.0749 4.54153 13.3097C4.6555 13.5145 4.80876 13.6947 4.99252 13.8402C5.17628 13.9856 5.38692 14.0933 5.61239 14.1572C5.83785 14.221 6.0737 14.2398 6.30643 14.2123C6.53915 14.1849 6.76417 14.1118 6.96859 13.9972C7.00467 13.5736 7.19348 13.1775 7.49986 12.8827C5.64569 12.6744 3.70819 11.9556 3.70819 8.76811C3.69648 7.9399 4.0021 7.13859 4.56236 6.52852C4.30759 5.80871 4.3374 5.01876 4.64569 4.32019C4.64569 4.32019 5.34358 4.10143 6.93736 5.17436C8.30093 4.79934 9.74045 4.79934 11.104 5.17436C12.6978 4.09102 13.3957 4.32019 13.3957 4.32019C13.704 5.01875 13.7338 5.80871 13.479 6.52852C14.041 7.13755 14.3469 7.93955 14.3332 8.76811C14.3332 11.966 12.3853 12.6744 10.5311 12.8827C10.73 13.0843 10.8832 13.3263 10.9802 13.5923C11.0773 13.8583 11.1159 14.1421 11.0936 14.4244C11.0936 15.539 11.0832 16.4348 11.0832 16.716C11.0832 16.9348 11.2394 17.1952 11.6561 17.1119C13.53 16.4809 15.1187 15.2046 16.1385 13.5106C17.1584 11.8167 17.5431 9.81544 17.2239 7.86411C16.9048 5.91279 15.9025 4.13839 14.3961 2.85768C12.8897 1.57696 10.9771 0.873279 8.99986 0.87225Z" fill="#12F7D6"/>
</svg>
